<?xml version="1.0" encoding="utf-8"?>
<!-- Generator: Adobe Illustrator 19.0.0, SVG Export Plug-In . SVG Version: 6.00 Build 0)  -->
<svg version="1.1" id="Layer_1" xmlns="http://www.w3.org/2000/svg" xmlns:xlink="http://www.w3.org/1999/xlink" x="0px" y="0px"
	 viewBox="0 0 104 45" style="enable-background:new 0 0 104 45;" xml:space="preserve">
<style type="text/css">
	.st0{fill:#FF0066;}
	.st1{fill:#FFFFFF;}
	.st2{fill:#FF99CC;}
</style>
<path id="XMLID_4_" class="st0" d="M78.8,44.7H20.9c-11.4,0-20.6-9.3-20.7-20.8v-2.7C0.2,9.7,9.5,0.3,20.9,0.3h82.5l-3.3,23.4
	C97.7,36.8,90.2,44.7,78.8,44.7z"/>
<path id="XMLID_3_" class="st1" d="M26.4,13.4l1.6,4.8c0.2,0.5,0.7,0.9,1.2,0.9h5c0.7,0,1.3,0.6,1.3,1.3c0,0.4-0.2,0.8-0.5,1.1
	l-4.1,3c-0.5,0.3-0.7,1-0.5,1.5l1.6,4.8c0.2,0.7-0.1,1.4-0.8,1.6c-0.4,0.1-0.8,0.1-1.1-0.2l-4.1-3c-0.4-0.3-1-0.3-1.5,0l-4.1,3
	c-0.6,0.4-1.4,0.3-1.8-0.3c-0.2-0.3-0.3-0.8-0.2-1.2l1.6-4.8c0.2-0.5,0-1.1-0.5-1.4l-4.1-3c-0.6-0.4-0.7-1.2-0.3-1.8
	c0.2-0.3,0.6-0.5,1-0.5h5c0.6,0,1-0.4,1.2-0.9l1.6-4.8c0.2-0.7,0.9-1.1,1.6-0.9C25.9,12.7,26.2,13,26.4,13.4z"/>
<path id="XMLID_2_" class="st2" d="M51,13.4l1.6,4.8c0.2,0.5,0.7,0.9,1.2,0.9h5.1c0.7,0,1.3,0.6,1.3,1.3c0,0.4-0.2,0.8-0.5,1.1
	l-4.1,3c-0.5,0.3-0.7,1-0.5,1.5l1.6,4.8c0.2,0.7-0.1,1.4-0.8,1.6c-0.4,0.1-0.8,0.1-1.1-0.2l-4.1-3c-0.4-0.3-1-0.3-1.5,0l-4.1,3
	c-0.6,0.4-1.4,0.3-1.8-0.3c-0.2-0.3-0.3-0.8-0.2-1.2l1.6-4.8c0.2-0.5,0-1.1-0.5-1.4l-4.1-3c-0.6-0.4-0.7-1.2-0.3-1.8
	c0.2-0.3,0.6-0.5,1-0.5h5c0.6,0,1-0.4,1.2-0.9l1.6-4.8c0.2-0.7,0.9-1.1,1.6-0.9C50.6,12.8,50.9,13.1,51,13.4z"/>
<path id="XMLID_1_" class="st1" d="M75.7,13.4l1.6,4.8c0.2,0.5,0.7,0.9,1.2,0.9h5c0.7,0,1.3,0.6,1.3,1.3c0,0.4-0.2,0.8-0.5,1l-4.1,3
	c-0.5,0.3-0.6,1-0.4,1.5l1.6,4.8c0.2,0.7-0.1,1.4-0.8,1.6c-0.4,0.1-0.8,0.1-1.1-0.2l-4.1-3c-0.4-0.3-1-0.3-1.5,0l-4.1,3
	c-0.6,0.4-1.4,0.3-1.8-0.3c-0.2-0.3-0.3-0.8-0.2-1.2l1.5-4.8c0.2-0.5,0-1.1-0.5-1.4l-4.1-3c-0.6-0.4-0.7-1.2-0.3-1.8
	c0.2-0.3,0.6-0.5,1-0.5h5c0.6,0,1-0.4,1.2-0.9l1.6-4.8c0.2-0.7,0.9-1.1,1.6-0.9C75.3,12.7,75.6,13,75.7,13.4z"/>
</svg>
