<svg xmlns="http://www.w3.org/2000/svg" viewBox="0 0 19.636 18">
  <defs>
    <style>
      .cls-1 {
        fill: #f06;
      }
    </style>
  </defs>
  <path id="f36f" class="cls-1" d="M17.335,1.074l2.3,6.034V15.29a1.049,1.049,0,0,1-1.074,1.074H17.438a1.049,1.049,0,0,1-1.074-1.074v-.562H3.273v.563A1.049,1.049,0,0,1,2.2,16.364H1.074A1.049,1.049,0,0,1,0,15.29V7.108L2.3,1.074A1.42,1.42,0,0,1,3.835,0H15.8A1.42,1.42,0,0,1,17.335,1.074ZM3.835,11.455a1.617,1.617,0,0,0,1.151-.46,1.667,1.667,0,0,0,0-2.352,1.617,1.617,0,0,0-1.151-.46,1.617,1.617,0,0,0-1.151.46,1.667,1.667,0,0,0,0,2.352A1.617,1.617,0,0,0,3.835,11.455Zm11.966,0a1.617,1.617,0,0,0,1.151-.46,1.667,1.667,0,0,0,0-2.352,1.668,1.668,0,0,0-2.3,0,1.667,1.667,0,0,0,0,2.352A1.617,1.617,0,0,0,15.8,11.455ZM2.2,5.983H17.438L15.8,1.636H3.835ZM19.636,18"/>
</svg>
