<svg xmlns="http://www.w3.org/2000/svg" viewBox="0 0 22.601 16.973">
  <defs>
    <style>
      .cls-1 {
        fill: #fff;
      }
    </style>
  </defs>
  <path id="e106" class="cls-1" d="M3.752,1.9v9.4h15.1V1.9Zm15.1,11.3H22.6v1.9H0V13.2H3.752a1.748,1.748,0,0,1-1.3-.574A1.854,1.854,0,0,1,1.9,11.3V1.9A1.854,1.854,0,0,1,2.45.574,1.748,1.748,0,0,1,3.752,0h15.1a1.748,1.748,0,0,1,1.3.574A1.854,1.854,0,0,1,20.7,1.9v9.4a1.854,1.854,0,0,1-.552,1.324A1.748,1.748,0,0,1,18.849,13.2ZM22.6,16.973"/>
</svg>
