<svg xmlns="http://www.w3.org/2000/svg" viewBox="0 0 11.973 9.888">
  <defs>
    <style>
      .cls-1 {
        fill: #e9eaf9;
      }
    </style>
  </defs>
  <path id="eye_view_eye_bootsrap" data-name="eye view eye bootsrap" class="cls-1" d="M5.657,3.121H5.73a1.5,1.5,0,0,1,1.1.463,1.5,1.5,0,0,1,.463,1.1v.1Zm-2.243.415a2.552,2.552,0,0,0-.293,1.146,2.511,2.511,0,0,0,.768,1.841,2.511,2.511,0,0,0,1.841.768A2.552,2.552,0,0,0,6.876,7l-.8-.8a1.433,1.433,0,0,1-.341.049,1.5,1.5,0,0,1-1.1-.463,1.5,1.5,0,0,1-.463-1.1,1.433,1.433,0,0,1,.049-.341ZM.536.658,1.195,0l9.217,9.217-.658.658q-.122-.122-.768-.756T8,8.144a5.813,5.813,0,0,1-2.268.439A6.015,6.015,0,0,1,2.243,7.51,6,6,0,0,1,0,4.682,6.286,6.286,0,0,1,1.951,2.1q-.293-.293-.817-.829ZM5.73,2.073a2.429,2.429,0,0,0-.951.2L3.658,1.146A5.726,5.726,0,0,1,5.73.78,5.959,5.959,0,0,1,9.205,1.853a6.024,6.024,0,0,1,2.231,2.829,6.358,6.358,0,0,1-1.78,2.463L8.144,5.633a2.429,2.429,0,0,0,.2-.951,2.511,2.511,0,0,0-.768-1.841A2.511,2.511,0,0,0,5.73,2.073Zm6.242,7.815"/>
</svg>
