<svg xmlns="http://www.w3.org/2000/svg" viewBox="0 0 23.839 29.147">
  <defs>
    <style>
      .cls-1 {
        fill: #f06;
      }
    </style>
  </defs>
  <path id="e955" class="cls-1" d="M15.893,7.946a1.333,1.333,0,0,0,.962-.357,1.29,1.29,0,0,0,.372-.978V1.335a1.29,1.29,0,0,0-.372-.978A1.333,1.333,0,0,0,15.893,0H11.92A7.623,7.623,0,0,0,8.847.621,7.925,7.925,0,0,0,4.594,4.873a7.623,7.623,0,0,0-.621,3.073v2.638H1.335a1.29,1.29,0,0,0-.978.372A1.333,1.333,0,0,0,0,11.92v5.308a1.28,1.28,0,0,0,.357.947,1.321,1.321,0,0,0,.978.357H3.973v9.281a1.333,1.333,0,0,0,.357.962,1.29,1.29,0,0,0,.978.372h5.277a1.29,1.29,0,0,0,.978-.372,1.333,1.333,0,0,0,.357-.962V18.531h2.638a1.409,1.409,0,0,0,.869-.279,1.209,1.209,0,0,0,.466-.776L17.228,12.2a1.1,1.1,0,0,0,.016-.605,1.917,1.917,0,0,0-.295-.605.751.751,0,0,0-.466-.341,2.713,2.713,0,0,0-.59-.062H11.92V7.946Zm-5.308,5.308h3.6L13.5,15.893H10.585a1.28,1.28,0,0,0-.947.357,1.321,1.321,0,0,0-.357.978v9.25H6.612v-9.25a1.321,1.321,0,0,0-.357-.978,1.28,1.28,0,0,0-.947-.357H2.638V13.254H5.308a1.251,1.251,0,0,0,.947-.372,1.333,1.333,0,0,0,.357-.962V7.946a5.106,5.106,0,0,1,1.568-3.74,5.106,5.106,0,0,1,3.74-1.568h2.638V5.308H11.92A2.65,2.65,0,0,0,9.281,7.946V11.92a1.333,1.333,0,0,0,.357.962A1.251,1.251,0,0,0,10.585,13.254ZM23.839,27.812"/>
</svg>
