<svg xmlns="http://www.w3.org/2000/svg" viewBox="0 0 12.204 11.046">
  <defs>
    <style>
      .cls-1 {
        fill: #969696;
      }
    </style>
  </defs>
  <path id="logout_icon" data-name="logout icon" class="cls-1" d="M9.289,0a1.123,1.123,0,0,1,.817.354,1.123,1.123,0,0,1,.354.817V9.289a1.211,1.211,0,0,1-1.171,1.171H1.171a1.109,1.109,0,0,1-.831-.354A1.144,1.144,0,0,1,0,9.289V6.974H1.171V9.289H9.289V1.171H1.171V3.487H0V1.171A1.144,1.144,0,0,1,.341.354,1.109,1.109,0,0,1,1.171,0ZM4.113,7.328,5.612,5.8H0V4.658H5.612l-1.5-1.526.817-.817L7.845,5.23,4.931,8.145ZM12.2,11.046"/>
</svg>
