<svg xmlns="http://www.w3.org/2000/svg" viewBox="0 0 17.39 10.987">
  <path id="merchant_icon" data-name="merchant icon" d="M1.449,6.763a.432.432,0,0,0,.423-.242.513.513,0,0,0,0-.483A.432.432,0,0,0,1.449,5.8a.432.432,0,0,0-.423.242.513.513,0,0,0,0,.483A.432.432,0,0,0,1.449,6.763Zm11.118-.438-.291-.377-.313-.408q-.1-.128-.287-.37t-.321-.4q-.132-.158-.306-.355t-.34-.37L9.767,5.1A1.966,1.966,0,0,1,8.193,5.8a1.972,1.972,0,0,1-1.551-.74,1.845,1.845,0,0,1,.015-2.377L7.993,1.125A1.472,1.472,0,0,0,7.608,1,2.345,2.345,0,0,0,7.249.955q-.14,0-.426,0t-.37.008a1.627,1.627,0,0,0-1.193.5L4.068,2.657H2.9V6.763l.158,0q.121,0,.166,0l.147.015a.572.572,0,0,1,.155.034q.053.023.132.064a.57.57,0,0,1,.14.1l2.242,2.2a2.518,2.518,0,0,0,1.713.838,1.275,1.275,0,0,0,.943-.355,1.046,1.046,0,0,0,.849-.06,1.024,1.024,0,0,0,.547-.642,1.2,1.2,0,0,0,.959-.332,1.413,1.413,0,0,0,.272-.343.653.653,0,0,0,.106-.381.482.482,0,0,0,.325.075,1.083,1.083,0,0,0,.581-.158.963.963,0,0,0,.374-.4,1.011,1.011,0,0,0,.091-.54A1.025,1.025,0,0,0,12.567,6.325Zm1.2.438h.725V2.9h-.7L12.6,1.54A1.613,1.613,0,0,0,11.329.966h-1.26a1.382,1.382,0,0,0-1.1.506L7.389,3.306a.851.851,0,0,0-.211.566.87.87,0,0,0,.2.566,1.06,1.06,0,0,0,.83.392,1.046,1.046,0,0,0,.838-.37l1.457-1.645a.543.543,0,0,1,.4-.162.483.483,0,0,1,.419.63q.121.143.423.475t.453.513q.219.272.623.8t.487.638A2.047,2.047,0,0,1,13.767,6.763Zm2.174,0a.432.432,0,0,0,.423-.242.513.513,0,0,0,0-.483.491.491,0,0,0-.845,0,.513.513,0,0,0,0,.483A.432.432,0,0,0,15.94,6.763ZM17.39,2.415v4.83a.49.49,0,0,1-.483.483H13.631a1.9,1.9,0,0,1-.619.8,2.013,2.013,0,0,1-.943.389,2.434,2.434,0,0,1-.608.615,2.113,2.113,0,0,1-.774.343,2.106,2.106,0,0,1-.789.615,2.013,2.013,0,0,1-.97.185,2.3,2.3,0,0,1-.951.3,2.474,2.474,0,0,1-.962-.106,4,4,0,0,1-.883-.4,4.4,4.4,0,0,1-.781-.611L3.185,7.729H.483a.464.464,0,0,1-.34-.143A.464.464,0,0,1,0,7.246V2.174a.464.464,0,0,1,.143-.34.464.464,0,0,1,.34-.143H3.661q.106-.106.355-.362T4.374.966q.109-.106.332-.3A2.243,2.243,0,0,1,5.087.381q.158-.087.385-.192A1.839,1.839,0,0,1,5.94.042,3.029,3.029,0,0,1,6.453,0h.883A2.37,2.37,0,0,1,8.7.423,2.37,2.37,0,0,1,10.068,0h1.26a2.74,2.74,0,0,1,.506.045,2.99,2.99,0,0,1,.426.109,1.735,1.735,0,0,1,.389.2q.2.136.336.234a2.8,2.8,0,0,1,.325.3q.192.2.294.317t.309.362q.208.245.313.366h2.679a.49.49,0,0,1,.483.483Zm0,7.246"/>
</svg>
