<svg xmlns="http://www.w3.org/2000/svg" viewBox="0 0 321.29 51.03"><defs><style>.cls-1{fill:#fff;}.cls-2{fill:#f06;}.cls-3{fill:#f9c;}</style></defs><title>passward logo white</title><g id="Layer_2" data-name="Layer 2"><g id="Layer_1-2" data-name="Layer 1"><path class="cls-1" d="M139.07,23.4C139.07,29.23,135.2,39,125,39c-.86,0-2.21,0-3.77-.1l-1.56,11.2a1,1,0,0,1-1.15,1H113c-.5,0-.55-.05-.45-.56l5.12-36.36a1.09,1.09,0,0,1,1.11-1h2.56c1.91,0,2.91.91,3.06,2.36a9.18,9.18,0,0,1,6.33-2.86C137.26,12.65,139.07,18.18,139.07,23.4ZM131.94,25c0-2.77-1.16-6.08-4.17-6.08a6.46,6.46,0,0,0-4,1.86l-1.66,12c1.06,0,2.06,0,3,0C129.33,32.79,131.94,29.08,131.94,25Z"/><path class="cls-1" d="M166.64,13.7,164,32.09a20.22,20.22,0,0,0-.1,5.17,1.26,1.26,0,0,1-1.25,1.21h-2.21c-2.57,0-3-.4-3.32-3.42C155.64,36.71,153,39,150,39c-6.53,0-8.34-5.52-8.34-10.75,0-5.83,3.87-15.57,14.06-15.57,2.06,0,7.24.2,10.3.5h.15C166.69,13.2,166.69,13.45,166.64,13.7ZM157.3,30.33l1.61-11.45c-1.16-.05-2.26-.05-3.27-.05-4.22,0-6.83,3.72-6.83,7.78,0,2.82,1.16,6.08,4.17,6.08C154.34,32.69,156,31.54,157.3,30.33Z"/><path class="cls-1" d="M187.89,15.21c.5.4.65.7.3,1.26l-2.51,3.26c-.3.4-.71.4-1.26.15a8.09,8.09,0,0,0-3.67-1.05,2.36,2.36,0,0,0-2.41,2.11c.1.9.46.9,2.31,1.81,2.92,1.4,6.64,2.31,6.64,7.28,0,4.37-3.77,8.94-10.3,8.94a10.59,10.59,0,0,1-7.79-3.82c-.4-.5-.5-.95-.2-1.25l2.51-3.07c.3-.4.66-.35,1.11.1,2.06,1.81,3.21,1.86,4.37,1.86,2.76,0,3.11-1.45,3.11-2.81,0-1-.4-1.46-2.31-2.36-2.91-1.36-6.53-2.61-6.53-6.18a8.93,8.93,0,0,1,9.39-8.79A10.39,10.39,0,0,1,187.89,15.21Z"/><path class="cls-1" d="M208.73,15.21c.5.4.65.7.3,1.26l-2.51,3.26c-.3.4-.7.4-1.25.15a8.15,8.15,0,0,0-3.67-1.05,2.36,2.36,0,0,0-2.41,2.11c.1.9.45.9,2.31,1.81,2.91,1.4,6.63,2.31,6.63,7.28,0,4.37-3.77,8.94-10.3,8.94a10.57,10.57,0,0,1-7.78-3.82c-.41-.5-.51-.95-.21-1.25l2.52-3.07c.3-.4.65-.35,1.1.1,2.06,1.81,3.22,1.86,4.37,1.86,2.76,0,3.12-1.45,3.12-2.81,0-1-.41-1.46-2.31-2.36-2.92-1.36-6.53-2.61-6.53-6.18a8.93,8.93,0,0,1,9.39-8.79A10.39,10.39,0,0,1,208.73,15.21Z"/><path class="cls-1" d="M246.35,14.21a38.33,38.33,0,0,1-.3,5.37c-1.15,7.24-4.12,12.41-9.29,18.49-.3.35-.35.4-.81.4h-5.17c-.45,0-.7-.2-.8-.8l-1.16-6.84a59.21,59.21,0,0,1-5.42,7.24c-.31.35-.36.4-.81.4h-5.22c-.45,0-.7-.25-.81-.8l-4-23.87c-.1-.5-.1-.65.45-.65h5.88c.45,0,.75.1.85.81l2.11,16.42a21.45,21.45,0,0,0,4.47-11.15l.15-2.31L226,13.8c-.1-.5-.1-.65.45-.65h5.88a.77.77,0,0,1,.85.81l1.56,16.32c2.56-3.62,3.41-6.63,4.27-11a42.19,42.19,0,0,0,.4-5.68c0-.35.35-.4.8-.4h5.53C246.25,13.15,246.35,13.7,246.35,14.21Z"/><path class="cls-1" d="M273.07,13.7l-2.61,18.39a20.22,20.22,0,0,0-.1,5.17,1.27,1.27,0,0,1-1.26,1.21h-2.21c-2.56,0-3-.4-3.31-3.42-1.51,1.66-4.17,3.92-7.14,3.92-6.53,0-8.34-5.52-8.34-10.75,0-5.83,3.87-15.57,14.07-15.57,2.06,0,7.23.2,10.3.5h.15C273.12,13.2,273.12,13.45,273.07,13.7Zm-9.34,16.63,1.6-11.45c-1.15-.05-2.26-.05-3.26-.05-4.22,0-6.83,3.72-6.83,7.78,0,2.82,1.15,6.08,4.17,6.08C260.76,32.69,262.37,31.54,263.73,30.33Z"/><path class="cls-1" d="M294.72,13.15l-.91,6.33a1.3,1.3,0,0,1-1.3.91c-4.22.5-6.79.75-7.24,3.26l-2,13.86a1,1,0,0,1-1.05,1h-5.53c-.5,0-.55,0-.45-.5l3.37-23.81a1.12,1.12,0,0,1,1.05-1h2.51c2.46,0,3.37,1.21,3.07,3.22l0,.45c3.31-2.46,7.28-4,8.39-4C294.77,12.8,294.82,12.85,294.72,13.15Z"/><path class="cls-1" d="M321.29,1.75,317.07,32a23.07,23.07,0,0,0-.21,5.17,1.23,1.23,0,0,1-1.2,1.26h-2.21c-2.61,0-3.17-1.46-3.22-3.47-1.5,1.66-4.22,4-7.18,4-6.53,0-8.34-5.52-8.34-10.75,0-5.83,3.87-15.57,14.07-15.57.9,0,2.36,0,4,.1l1.55-11.4c.1-.5.15-.56.66-.56h5.52A.88.88,0,0,1,321.29,1.75Zm-11,28.58,1.56-11.45c-1.1-.05-2.21-.05-3.21-.05-4.22,0-6.84,3.72-6.84,7.78,0,2.82,1.16,6.08,4.17,6.08C307.37,32.69,309,31.49,310.33,30.33Z"/><path class="cls-1" d="M80.39,45H21.14A21.15,21.15,0,0,1,0,23.86V21.14A21.15,21.15,0,0,1,21.14,0h84.39L102.2,23.71C99.78,37,92.07,45,80.39,45Z"/><path class="cls-2" d="M26.76,13.31l1.59,4.91a1.31,1.31,0,0,0,1.24.9h5.16a1.3,1.3,0,0,1,.77,2.36l-4.18,3A1.31,1.31,0,0,0,30.87,26l1.59,4.91a1.3,1.3,0,0,1-2,1.46l-4.18-3a1.31,1.31,0,0,0-1.53,0l-4.18,3a1.3,1.3,0,0,1-2-1.46L20.16,26a1.29,1.29,0,0,0-.47-1.46l-4.18-3a1.31,1.31,0,0,1,.77-2.36h5.16a1.29,1.29,0,0,0,1.24-.9l1.6-4.91A1.3,1.3,0,0,1,26.76,13.31Z"/><path class="cls-3" d="M52,13.31l1.59,4.91a1.31,1.31,0,0,0,1.24.9H60a1.3,1.3,0,0,1,.77,2.36l-4.18,3A1.31,1.31,0,0,0,56.12,26l1.59,4.91a1.3,1.3,0,0,1-2,1.46l-4.18-3a1.31,1.31,0,0,0-1.53,0l-4.18,3a1.3,1.3,0,0,1-2-1.46L45.41,26a1.29,1.29,0,0,0-.47-1.46l-4.18-3a1.31,1.31,0,0,1,.77-2.36h5.16a1.29,1.29,0,0,0,1.24-.9l1.6-4.91A1.3,1.3,0,0,1,52,13.31Z"/><path class="cls-2" d="M77.26,13.31l1.59,4.91a1.31,1.31,0,0,0,1.24.9h5.16A1.3,1.3,0,0,1,86,21.48l-4.18,3A1.31,1.31,0,0,0,81.37,26L83,30.88a1.3,1.3,0,0,1-2,1.46l-4.18-3a1.31,1.31,0,0,0-1.53,0l-4.18,3a1.3,1.3,0,0,1-2-1.46L70.66,26a1.29,1.29,0,0,0-.47-1.46l-4.18-3a1.31,1.31,0,0,1,.77-2.36h5.16a1.29,1.29,0,0,0,1.24-.9l1.6-4.91A1.3,1.3,0,0,1,77.26,13.31Z"/></g></g></svg>