<svg xmlns="http://www.w3.org/2000/svg" viewBox="0 0 15 15">
  <defs>
    <style>
      .cls-1 {
        fill: #fff;
      }
    </style>
  </defs>
  <path id="e0cc" class="cls-1" d="M14.734,13.7l-3.6-3.6a5.953,5.953,0,0,0,1.344-4.208,6.036,6.036,0,0,0-1.816-4.06A6.016,6.016,0,0,0,6.245,0,6.016,6.016,0,0,0,1.831,1.831,6.016,6.016,0,0,0,0,6.245a6.016,6.016,0,0,0,1.831,4.414,6.036,6.036,0,0,0,4.06,1.816A5.953,5.953,0,0,0,10.1,11.132l3.6,3.6a.769.769,0,0,0,.517.207.739.739,0,0,0,.517-1.24ZM9.8,9.8A4.849,4.849,0,0,1,6.245,11.28,4.849,4.849,0,0,1,2.687,9.8,4.849,4.849,0,0,1,1.211,6.245,4.849,4.849,0,0,1,2.687,2.687,4.867,4.867,0,0,1,6.26,1.211,4.77,4.77,0,0,1,9.8,2.687,4.849,4.849,0,0,1,11.28,6.245,4.849,4.849,0,0,1,9.8,9.8ZM15,15" transform="translate(0)"/>
</svg>
