<svg xmlns="http://www.w3.org/2000/svg" viewBox="0 0 47.184 42.189">
  <defs>
    <style>
      .cls-1 {
        fill: #f06;
      }
    </style>
  </defs>
  <path id="e910" class="cls-1" d="M12.705,13,14.693,0H4.461L.194,11.153a3.685,3.685,0,0,0-.145.606,4.228,4.228,0,0,0,1.818,4.146A7.153,7.153,0,0,0,6.4,17.36,7.15,7.15,0,0,0,10.62,16.1,4.633,4.633,0,0,0,12.705,13Zm9.65,4.364a7.153,7.153,0,0,0,4.534-1.455,4.313,4.313,0,0,0,1.867-3.491.537.537,0,0,0-.024-.17.537.537,0,0,1-.024-.17L27.447,0H17.263L16,12.075a.391.391,0,0,0-.048.17v.17a4.313,4.313,0,0,0,1.867,3.491A7.153,7.153,0,0,0,22.355,17.36Zm12.414,2.619v9.8H9.941v-9.8a11.7,11.7,0,0,1-1.721.461,9.761,9.761,0,0,1-1.818.17,5.15,5.15,0,0,1-.727-.048l-.679-.1v15.76A3.367,3.367,0,0,0,6.013,38.7a3.311,3.311,0,0,0,2.425,1.018H36.273A3.311,3.311,0,0,0,38.7,38.7a3.367,3.367,0,0,0,1.018-2.473V20.464l-.679.1a5.15,5.15,0,0,1-.727.048,9.761,9.761,0,0,1-1.818-.17A11.7,11.7,0,0,1,34.769,19.979Zm9.747-8.826L40.249,0H30.017l1.94,13a4.616,4.616,0,0,0,2.109,3.1,7.261,7.261,0,0,0,4.243,1.261,7.153,7.153,0,0,0,4.534-1.455,4.228,4.228,0,0,0,1.818-4.146A3.686,3.686,0,0,0,44.516,11.153Zm2.667,31.035"/>
</svg>
