<svg xmlns="http://www.w3.org/2000/svg" viewBox="0 0 25.826 25.826">
  <defs>
    <style>
      .cls-1 {
        fill: #f06;
      }
    </style>
  </defs>
  <path id="store_payment_icon" data-name="store payment icon" class="cls-1" d="M21.11,0H4.691L0,8.071V11.3a4.084,4.084,0,0,0,.214,1.3A3.661,3.661,0,0,0,.807,13.72L.832,22.6A3.07,3.07,0,0,0,1.8,24.88a3.254,3.254,0,0,0,2.358.946H21.64a3.341,3.341,0,0,0,2.383-.946,3.033,3.033,0,0,0,1-2.282V13.72a3.262,3.262,0,0,0,.618-1.059,4.257,4.257,0,0,0,.189-1.362V8.071Zm2.3,22.6a1.469,1.469,0,0,1-.542,1.135,1.8,1.8,0,0,1-1.223.479H4.161a1.753,1.753,0,0,1-1.211-.479,1.483,1.483,0,0,1-.53-1.135V20.984H23.4Zm0-3.228H2.421V14.527H4.01A2.983,2.983,0,0,0,5.523,14,3.492,3.492,0,0,0,6.835,12.56a3.849,3.849,0,0,0,1.324,1.425,3.126,3.126,0,0,0,1.7.542,3.687,3.687,0,0,0,1.816-.492,2.612,2.612,0,0,0,1.211-1.3,2.85,2.85,0,0,0,1.223,1.286,3.506,3.506,0,0,0,1.778.5,2.978,2.978,0,0,0,1.728-.593,4.276,4.276,0,0,0,1.324-1.475,7.993,7.993,0,0,0,1.135,1.488,2.326,2.326,0,0,0,1.715.58q.177,0,.82.013a6.264,6.264,0,0,0,.794-.013Zm.807-8.071a1.286,1.286,0,0,1-.794,1.223,3.646,3.646,0,0,1-1.627.391,3.061,3.061,0,0,1-1.728-.492,1.375,1.375,0,0,1-.744-1.122h-.757q0,.605-.883,1.11a3.616,3.616,0,0,1-1.816.5,3.273,3.273,0,0,1-1.728-.517q-.845-.517-.845-1.1H12.51q0,.605-.858,1.11a3.4,3.4,0,0,1-1.74.5,4.133,4.133,0,0,1-1.8-.416,1.3,1.3,0,0,1-.87-1.2H6.482A1.416,1.416,0,0,1,5.7,12.421a2.965,2.965,0,0,1-1.665.517,3.481,3.481,0,0,1-1.665-.4A1.316,1.316,0,0,1,1.614,11.3V9.685h22.6ZM1.639,8.071,5.4,1.614H20.4l3.834,6.457ZM25.826,24.212"/>
</svg>
