<svg xmlns="http://www.w3.org/2000/svg" viewBox="0 0 22 22">
  <defs>
    <style>
      .cls-1 {
        fill: #52cb9c;
      }

      .cls-2, .cls-4 {
        fill: none;
      }

      .cls-2 {
        stroke: #52cb9c;
        stroke-width: 1.2px;
      }

      .cls-3 {
        stroke: none;
      }
    </style>
  </defs>
  <g id="top_up_icon" data-name="top up icon" transform="translate(-660 -372)">
    <path id="e0b9" class="cls-1" d="M13.344,6.344H7.656V.656A.633.633,0,0,0,7.465.191a.66.66,0,0,0-.93,0,.633.633,0,0,0-.191.465V6.344H.656a.633.633,0,0,0-.465.191.66.66,0,0,0,0,.93.633.633,0,0,0,.465.191H6.344v5.688a.656.656,0,1,0,1.313,0V7.656h5.688a.656.656,0,1,0,0-1.312ZM14,14" transform="translate(664 376)"/>
    <g id="Ellipse_21" data-name="Ellipse 21" class="cls-2" transform="translate(660 372)">
      <circle class="cls-3" cx="11" cy="11" r="11"/>
      <circle class="cls-4" cx="11" cy="11" r="10.4"/>
    </g>
  </g>
</svg>
