<svg xmlns="http://www.w3.org/2000/svg" viewBox="0 0 12.649 13.827">
  <defs>
    <style>
      .cls-1 {
        fill: #f06;
      }
    </style>
  </defs>
  <path id="ec27" class="cls-1" d="M4.918,3.534l.243.56q.243.56.272.633a.756.756,0,0,1,.037.177A.292.292,0,0,1,5.4,5.1,1.646,1.646,0,0,1,5.2,5.36a2.617,2.617,0,0,0-.177.206q-.029.059-.052.11t.066.184q.088.133.537.722A3.6,3.6,0,0,0,7.083,7.613l.088.022a.184.184,0,0,0,.177-.066q.088-.088.265-.309t.206-.265a1.276,1.276,0,0,1,.118-.1.192.192,0,0,1,.221.007q.147.059.677.309l.53.25.074.052q.074.052.059.214a2.389,2.389,0,0,1-.059.449.775.775,0,0,1-.4.493,2.416,2.416,0,0,1-.648.309A1.311,1.311,0,0,1,7.746,9a6.53,6.53,0,0,1-1.1-.346A5.153,5.153,0,0,1,5.036,7.569l-.56-.6a4.405,4.405,0,0,1-.869-1.347,1.8,1.8,0,0,1-.133-1.266,1.91,1.91,0,0,1,.456-.78l.14-.11a.46.46,0,0,1,.287-.11,2.334,2.334,0,0,0,.258.015A.433.433,0,0,1,4.8,3.4a.213.213,0,0,1,.066.066A.342.342,0,0,0,4.918,3.534ZM0,12.649,1.119,9.38a6.333,6.333,0,0,1-.67-1.546A6.105,6.105,0,0,1,.221,6.17a5.961,5.961,0,0,1,.486-2.4A6.225,6.225,0,0,1,4,.486,5.977,5.977,0,0,1,6.391,0,6.013,6.013,0,0,1,8.8.486,6.225,6.225,0,0,1,12.09,3.77a5.961,5.961,0,0,1,.486,2.4,5.961,5.961,0,0,1-.486,2.4A6.225,6.225,0,0,1,8.8,11.854a6.013,6.013,0,0,1-2.408.486,6.1,6.1,0,0,1-1.554-.2,6.27,6.27,0,0,1-1.45-.582ZM3.5,10.47l.206.133a5.162,5.162,0,0,0,2.68.751,4.978,4.978,0,0,0,2.017-.412,5.4,5.4,0,0,0,1.649-1.112,5.139,5.139,0,0,0,1.112-1.642,5.055,5.055,0,0,0,.4-2.017,5.055,5.055,0,0,0-.4-2.017,5.139,5.139,0,0,0-1.112-1.642A5.4,5.4,0,0,0,8.408,1.4a5.106,5.106,0,0,0-4.02,0A5.4,5.4,0,0,0,2.739,2.511,5.139,5.139,0,0,0,1.627,4.153a5.055,5.055,0,0,0-.4,2.017,5.29,5.29,0,0,0,.214,1.495,4.871,4.871,0,0,0,.641,1.362l.133.206L1.59,11.089Zm10.323,2.091" transform="translate(0 13.827) rotate(-90)"/>
</svg>
