<svg xmlns="http://www.w3.org/2000/svg" viewBox="0 0 26.547 25.379">
  <defs>
    <style>
      .cls-1 {
        fill: #f06;
      }
    </style>
  </defs>
  <path id="e995" class="cls-1" d="M22.363,14.945a13.249,13.249,0,0,1-1.535-.258,14.129,14.129,0,0,1-1.481-.421,3.268,3.268,0,0,0-1.929-.122,3.989,3.989,0,0,0-1.766.937l-.815.815A21.181,21.181,0,0,1,11.9,13.518,15.66,15.66,0,0,1,9.51,10.543l.815-.815a3.414,3.414,0,0,0,.91-1.712,3.589,3.589,0,0,0-.1-1.984,11.03,11.03,0,0,1-.448-1.467,12.556,12.556,0,0,1-.258-1.549A3.28,3.28,0,0,0,9.266.856,3.46,3.46,0,0,0,6.956,0H3.125A3.374,3.374,0,0,0,1.848.421a3.777,3.777,0,0,0-1.033.856A3.16,3.16,0,0,0,.19,2.459,4.97,4.97,0,0,0,0,3.831,24.453,24.453,0,0,0,.435,6.6a25.3,25.3,0,0,0,.8,2.717,25.254,25.254,0,0,0,1.1,2.609A26.494,26.494,0,0,0,3.7,14.374a24.651,24.651,0,0,0,1.522,2.092,22.288,22.288,0,0,0,3.7,3.7A24.652,24.652,0,0,0,11,21.683,20.422,20.422,0,0,0,13.45,23.1a22.83,22.83,0,0,0,2.622,1.087,24.576,24.576,0,0,0,2.7.761,18.345,18.345,0,0,0,2.8.435H21.9a3.659,3.659,0,0,0,1.359-.258,2.689,2.689,0,0,0,1.087-.774,5.48,5.48,0,0,0,.734-1.128,2.96,2.96,0,0,0,.3-1.318V18.423a3.518,3.518,0,0,0-3.016-3.478Zm.706,3.478V21.9a1.171,1.171,0,0,1-.082.462.977.977,0,0,1-.272.353.947.947,0,0,1-.367.272,1.54,1.54,0,0,1-.557.082,23.939,23.939,0,0,1-2.5-.408,19.359,19.359,0,0,1-2.418-.706q-1.2-.435-2.364-.978A22.777,22.777,0,0,1,12.282,19.7a15.545,15.545,0,0,1-1.9-1.331,19.253,19.253,0,0,1-1.753-1.576,22.215,22.215,0,0,1-1.562-1.766Q6.331,14.1,5.679,13.1a19.356,19.356,0,0,1-1.25-2.228,20.311,20.311,0,0,1-.992-2.337,24.514,24.514,0,0,1-.72-2.446,22.474,22.474,0,0,1-.408-2.5,1.1,1.1,0,0,1,.082-.435l.163-.38a2.185,2.185,0,0,1,.408-.312.975.975,0,0,1,.516-.149H6.956a1.02,1.02,0,0,1,.747.312,1.578,1.578,0,0,1,.421.747,10.713,10.713,0,0,0,.326,1.78,11.336,11.336,0,0,0,.6,1.7,1.568,1.568,0,0,1,.014.679,1.6,1.6,0,0,1-.258.6L7.309,9.51a1.076,1.076,0,0,0-.34.639,1.24,1.24,0,0,0,.1.747,18.187,18.187,0,0,0,1.467,2.228,18.068,18.068,0,0,0,1.725,2,20.48,20.48,0,0,0,2,1.753,20.352,20.352,0,0,0,2.228,1.44,1.268,1.268,0,0,0,.747.149.883.883,0,0,0,.639-.367l1.522-1.522a1.391,1.391,0,0,1,.6-.326.927.927,0,0,1,.679.109,14.141,14.141,0,0,0,1.739.53q.87.2,1.739.394a1.239,1.239,0,0,1,.639.394,1.07,1.07,0,0,1,.285.747Zm3.478,5.924"/>
</svg>
