<svg xmlns="http://www.w3.org/2000/svg" viewBox="0 0 13.828 11.309">
  <defs>
    <style>
      .cls-1 {
        fill: #f06;
      }
    </style>
  </defs>
  <path id="e955" class="cls-1" d="M7.54,3.77A.633.633,0,0,0,8,3.6a.612.612,0,0,0,.177-.464V.633A.612.612,0,0,0,8,.169.633.633,0,0,0,7.54,0H5.655A3.616,3.616,0,0,0,4.2.295,3.76,3.76,0,0,0,2.179,2.312,3.616,3.616,0,0,0,1.885,3.77V5.021H.633A.612.612,0,0,0,.169,5.2.633.633,0,0,0,0,5.655V8.173a.607.607,0,0,0,.169.449.627.627,0,0,0,.464.169H1.885v4.4a.633.633,0,0,0,.169.456.612.612,0,0,0,.464.177h2.5a.612.612,0,0,0,.464-.177.633.633,0,0,0,.169-.456v-4.4H6.906a.668.668,0,0,0,.412-.133.573.573,0,0,0,.221-.368l.633-2.5A.521.521,0,0,0,8.18,5.5a.91.91,0,0,0-.14-.287.356.356,0,0,0-.221-.162,1.287,1.287,0,0,0-.28-.029H5.655V3.77ZM5.021,6.288H6.73L6.406,7.54H5.021a.607.607,0,0,0-.449.169.627.627,0,0,0-.169.464v4.388H3.137V8.173a.627.627,0,0,0-.169-.464.607.607,0,0,0-.449-.169H1.252V6.288H2.518a.593.593,0,0,0,.449-.177.633.633,0,0,0,.169-.457V3.77A2.422,2.422,0,0,1,3.88,2a2.422,2.422,0,0,1,1.774-.744H6.906V2.518H5.655A1.257,1.257,0,0,0,4.4,3.77V5.655a.633.633,0,0,0,.169.457A.593.593,0,0,0,5.021,6.288Zm6.288,6.906" transform="translate(0 11.309) rotate(-90)"/>
</svg>
