<svg xmlns="http://www.w3.org/2000/svg" viewBox="0 0 23.752 25.731">
  <defs>
    <style>
      .cls-1 {
        fill: #f06;
      }
    </style>
  </defs>
  <path id="e888" class="cls-1" d="M0,22.763a.951.951,0,0,0,.294.7.951.951,0,0,0,.7.294h.99v.99H3.959v-.99h7.917v.99h1.979v-.99h.99a1,1,0,0,0,.99-.99V14.845H0Zm.99-6.928h.99V18.8H.99ZM14.845,0H.99a.951.951,0,0,0-.7.294A.951.951,0,0,0,0,.99V13.855H15.835V.99a.951.951,0,0,0-.294-.7A.951.951,0,0,0,14.845,0ZM1.979,12.866H.99V9.9h.99ZM23.752,25.732"/>
</svg>
