<svg xmlns="http://www.w3.org/2000/svg" viewBox="0 0 32 32">
  <defs>
    <style>
      .cls-1 {
        fill: #52cb9c;
      }

      .cls-2 {
        fill: #fff;
      }
    </style>
  </defs>
  <g id="Group_384" data-name="Group 384" transform="translate(-1073 -184)">
    <circle id="Ellipse_24" data-name="Ellipse 24" class="cls-1" cx="16" cy="16" r="16" transform="translate(1073 184)"/>
    <path id="e995" class="cls-2" d="M13.912,9.3a8.242,8.242,0,0,1-.955-.161,8.79,8.79,0,0,1-.921-.262,2.033,2.033,0,0,0-1.2-.076,2.482,2.482,0,0,0-1.1.583l-.507.507A13.176,13.176,0,0,1,7.4,8.409,9.742,9.742,0,0,1,5.916,6.559l.507-.507A2.124,2.124,0,0,0,6.99,4.987,2.232,2.232,0,0,0,6.93,3.753a6.861,6.861,0,0,1-.279-.913,7.811,7.811,0,0,1-.161-.963A2.04,2.04,0,0,0,5.764.532,2.152,2.152,0,0,0,4.327,0H1.944a2.1,2.1,0,0,0-.794.262A2.35,2.35,0,0,0,.507.794a1.966,1.966,0,0,0-.389.735A3.092,3.092,0,0,0,0,2.383,15.212,15.212,0,0,0,.27,4.108a15.741,15.741,0,0,0,.5,1.69,15.71,15.71,0,0,0,.685,1.623A16.481,16.481,0,0,0,2.3,8.942a15.335,15.335,0,0,0,.947,1.3,13.865,13.865,0,0,0,2.3,2.3,15.336,15.336,0,0,0,1.3.947,12.7,12.7,0,0,0,1.521.879A14.2,14.2,0,0,0,10,15.044a15.289,15.289,0,0,0,1.682.473,11.412,11.412,0,0,0,1.741.27h.2a2.276,2.276,0,0,0,.845-.161,1.673,1.673,0,0,0,.676-.482,3.409,3.409,0,0,0,.456-.7,1.842,1.842,0,0,0,.186-.82V11.461A2.188,2.188,0,0,0,13.912,9.3Zm.439,2.164v2.164a.728.728,0,0,1-.051.287.608.608,0,0,1-.169.22.589.589,0,0,1-.228.169.958.958,0,0,1-.347.051A14.892,14.892,0,0,1,12,14.1a12.043,12.043,0,0,1-1.5-.439q-.744-.27-1.471-.609a14.169,14.169,0,0,1-1.386-.794,9.67,9.67,0,0,1-1.183-.828,11.977,11.977,0,0,1-1.09-.98,13.819,13.819,0,0,1-.972-1.1q-.456-.575-.862-1.2a12.041,12.041,0,0,1-.778-1.386,12.635,12.635,0,0,1-.617-1.454A15.25,15.25,0,0,1,1.69,3.786a13.981,13.981,0,0,1-.254-1.555.681.681,0,0,1,.051-.27l.1-.237a1.359,1.359,0,0,1,.254-.194.606.606,0,0,1,.321-.093H4.327a.634.634,0,0,1,.465.194.982.982,0,0,1,.262.465,6.664,6.664,0,0,0,.2,1.107A7.052,7.052,0,0,0,5.629,4.26a.976.976,0,0,1,.008.423,1,1,0,0,1-.161.372l-.93.862a.67.67,0,0,0-.211.4.772.772,0,0,0,.059.465,11.314,11.314,0,0,0,.913,1.386A11.24,11.24,0,0,0,6.381,9.407,12.74,12.74,0,0,0,7.623,10.5a12.661,12.661,0,0,0,1.386.9.789.789,0,0,0,.465.093.549.549,0,0,0,.4-.228l.947-.947a.865.865,0,0,1,.372-.2.577.577,0,0,1,.423.068,8.8,8.8,0,0,0,1.082.33q.541.127,1.082.245a.771.771,0,0,1,.4.245.666.666,0,0,1,.177.465Zm2.164,3.685" transform="translate(1081.652 191.579)"/>
  </g>
</svg>
