<svg xmlns="http://www.w3.org/2000/svg" viewBox="0 0 13 12">
  <defs>
    <style>
      .cls-1 {
        fill: #ff0267;
      }
    </style>
  </defs>
  <path id="f388" class="cls-1" d="M6.5,12l-.937-.844q-1.625-1.5-2.344-2.187T1.578,7.219A6.971,6.971,0,0,1,.328,5.328,4.666,4.666,0,0,1,0,3.594,3.479,3.479,0,0,1,1.031,1.031,3.441,3.441,0,0,1,3.563,0,3.671,3.671,0,0,1,6.5,1.375,3.671,3.671,0,0,1,9.438,0a3.441,3.441,0,0,1,2.531,1.031A3.479,3.479,0,0,1,13,3.594a4.666,4.666,0,0,1-.328,1.734,6.971,6.971,0,0,1-1.25,1.891Q10.5,8.281,9.781,8.969T7.438,11.156ZM13,12"/>
</svg>
