<svg xmlns="http://www.w3.org/2000/svg" viewBox="0 0 263.829 164.724">
  <defs>
    <style>
      .cls-1, .cls-2, .cls-3 {
        fill: none;
        stroke-width: 4px;
      }

      .cls-1 {
        stroke: #f7f7fe;
      }

      .cls-2 {
        stroke: #f4f4ff;
      }

      .cls-3 {
        stroke: #ebebff;
      }

      .cls-4 {
        fill: #e9eaf9;
      }
    </style>
  </defs>
  <g id="nothing_to_see_here_orders" data-name="nothing to see here orders" transform="translate(-660.388 -282.331)">
    <path id="Path_41" data-name="Path 41" class="cls-1" d="M49.842,15.783l4.706,14.533a3.877,3.877,0,0,0,3.67,2.664H73.491a3.848,3.848,0,0,1,2.279,6.985L63.4,48.845a3.878,3.878,0,0,0-1.391,4.321L66.713,67.7a3.848,3.848,0,0,1-5.92,4.321l-12.372-8.88a3.877,3.877,0,0,0-4.529,0L31.52,72.021A3.848,3.848,0,0,1,25.6,67.7l4.706-14.533a3.848,3.848,0,0,0-1.391-4.321l-12.372-8.88a3.877,3.877,0,0,1,2.279-6.985H34.095a3.818,3.818,0,0,0,3.67-2.664L42.5,15.783a3.848,3.848,0,0,1,7.341,0Z" transform="translate(825.816 363.551) rotate(-69)"/>
    <path id="Path_886" data-name="Path 886" class="cls-2" d="M35.991,14.713l2.836,8.758a2.337,2.337,0,0,0,2.212,1.605h9.2a2.319,2.319,0,0,1,1.374,4.21L44.16,34.638a2.337,2.337,0,0,0-.838,2.6L46.158,46a2.319,2.319,0,0,1-3.568,2.6l-7.456-5.351a2.337,2.337,0,0,0-2.729,0l-7.456,5.351A2.319,2.319,0,0,1,21.381,46l2.836-8.758a2.319,2.319,0,0,0-.838-2.6l-7.456-5.351a2.337,2.337,0,0,1,1.374-4.21h9.2a2.3,2.3,0,0,0,2.212-1.605l2.854-8.758a2.319,2.319,0,0,1,4.424,0Z" transform="translate(660.902 381.661) rotate(-102)"/>
    <path id="Path_887" data-name="Path 887" class="cls-3" d="M28.586,14.141l1.836,5.671a1.513,1.513,0,0,0,1.432,1.04h5.96a1.5,1.5,0,0,1,.889,2.726l-4.828,3.465a1.513,1.513,0,0,0-.543,1.686L35.169,34.4a1.5,1.5,0,0,1-2.31,1.686l-4.828-3.465a1.513,1.513,0,0,0-1.767,0l-4.828,3.465a1.5,1.5,0,0,1-2.31-1.686l1.836-5.671a1.5,1.5,0,0,0-.543-1.686l-4.828-3.465a1.513,1.513,0,0,1,.889-2.726h5.96a1.49,1.49,0,0,0,1.432-1.04l1.848-5.671a1.5,1.5,0,0,1,2.864,0Z" transform="matrix(0.545, -0.839, 0.839, 0.545, 835.156, 429.293)"/>
    <path id="Path_888" data-name="Path 888" class="cls-4" d="M11.188.864,12.7,5.529a1.245,1.245,0,0,0,1.178.855h4.9a1.235,1.235,0,0,1,.732,2.242l-3.971,2.85a1.245,1.245,0,0,0-.447,1.387l1.51,4.665a1.235,1.235,0,0,1-1.9,1.387l-3.971-2.85a1.245,1.245,0,0,0-1.454,0l-3.971,2.85a1.235,1.235,0,0,1-1.9-1.387l1.511-4.665a1.235,1.235,0,0,0-.446-1.387L.5,8.626a1.245,1.245,0,0,1,.732-2.242h4.9a1.226,1.226,0,0,0,1.178-.855L8.832.864a1.235,1.235,0,0,1,2.356,0Z" transform="translate(696.604 420.03) rotate(-73)"/>
    <g id="shopping-bag" transform="translate(697.177 282.331)">
      <g id="Group_342" data-name="Group 342" transform="translate(65.445)">
        <g id="Group_341" data-name="Group 341">
          <path id="Path_877" data-name="Path 877" class="cls-4" d="M119.8,20.355A23.733,23.733,0,0,0,77.131,9.747a2.791,2.791,0,1,0,4.507,3.293,18.151,18.151,0,0,1,32.63,8.1,2.8,2.8,0,0,0,2.761,2.4,2.99,2.99,0,0,0,.4-.028A2.793,2.793,0,0,0,119.8,20.355Z" transform="translate(-76.593)"/>
        </g>
      </g>
      <g id="Group_344" data-name="Group 344" transform="translate(20.942 36.294)">
        <g id="Group_343" data-name="Group 343" transform="translate(0)">
          <path id="Path_878" data-name="Path 878" class="cls-4" d="M150.216,59.687l-8.376-13.96a2.788,2.788,0,0,0-2.394-1.355H131.42a2.792,2.792,0,0,0,0,5.583h6.446l5.025,8.376H29.907l5.025-8.376H37.89a2.792,2.792,0,0,0,0-5.583H33.352a2.788,2.788,0,0,0-2.394,1.355l-8.376,13.96a2.793,2.793,0,0,0,2.394,4.23H147.822a2.793,2.793,0,0,0,2.394-4.23Z" transform="translate(-22.185 -44.372)"/>
        </g>
      </g>
      <g id="Group_346" data-name="Group 346" transform="translate(88.961 15.644)">
        <g id="Group_345" data-name="Group 345">
          <path id="Path_879" data-name="Path 879" class="cls-4" d="M151.439,29.348A2.787,2.787,0,0,0,149.7,28.1l-38.06-8.9a2.789,2.789,0,0,0-3.354,2.082l-2.87,12.269a2.792,2.792,0,0,0,5.437,1.27l2.235-9.55L145.711,32.9,140.585,54.82a2.789,2.789,0,0,0,2.082,3.353,2.824,2.824,0,0,0,.64.074,2.788,2.788,0,0,0,2.714-2.155l5.762-24.635A2.781,2.781,0,0,0,151.439,29.348Z" transform="translate(-105.343 -19.126)"/>
        </g>
      </g>
      <g id="Group_348" data-name="Group 348" transform="translate(31.828 8.485)">
        <g id="Group_347" data-name="Group 347">
          <path id="Path_880" data-name="Path 880" class="cls-4" d="M90.3,34.355,87.755,12.838a2.794,2.794,0,0,0-3.1-2.446l-46.7,5.52a2.792,2.792,0,0,0-2.444,3.1L39.755,54.9a2.793,2.793,0,0,0,2.77,2.465,3.05,3.05,0,0,0,.332-.02,2.794,2.794,0,0,0,2.444-3.1L41.387,21.128l41.152-4.864,2.215,18.743a2.792,2.792,0,0,0,5.546-.654Z" transform="translate(-35.494 -10.374)"/>
        </g>
      </g>
      <g id="Group_350" data-name="Group 350" transform="translate(52.688 26.804)">
        <g id="Group_349" data-name="Group 349">
          <path id="Path_881" data-name="Path 881" class="cls-4" d="M117.022,57.951l-5.542-23.045a2.789,2.789,0,0,0-3.368-2.06L63.137,43.663a2.792,2.792,0,0,0-2.062,3.368l2.77,11.518a2.792,2.792,0,1,0,5.429-1.305l-2.118-8.8L106.7,38.929l4.889,20.329a2.793,2.793,0,0,0,5.43-1.307Z" transform="translate(-60.997 -32.769)"/>
        </g>
      </g>
      <g id="Group_352" data-name="Group 352" transform="translate(15.359 50.256)">
        <g id="Group_351" data-name="Group 351">
          <path id="Path_882" data-name="Path 882" class="cls-4" d="M149.37,64.09a2.793,2.793,0,0,0-2.789-2.649H23.736a2.792,2.792,0,0,0-2.789,2.649L15.362,172.975a2.791,2.791,0,0,0,2.788,2.935H152.163a2.791,2.791,0,0,0,2.791-2.935ZM21.089,170.326l5.3-103.3h117.54l5.3,103.3Z" transform="translate(-15.359 -61.441)"/>
        </g>
      </g>
      <g id="Group_354" data-name="Group 354" transform="translate(97.721 61.422)">
        <g id="Group_353" data-name="Group 353">
          <path id="Path_883" data-name="Path 883" class="cls-4" d="M124.428,75.093a8.376,8.376,0,1,0,8.376,8.376A8.385,8.385,0,0,0,124.428,75.093Zm0,11.168a2.792,2.792,0,1,1,2.792-2.792A2.794,2.794,0,0,1,124.428,86.261Z" transform="translate(-116.052 -75.093)"/>
        </g>
      </g>
      <g id="Group_356" data-name="Group 356" transform="translate(55.842 61.422)">
        <g id="Group_355" data-name="Group 355">
          <path id="Path_884" data-name="Path 884" class="cls-4" d="M73.228,75.093A8.376,8.376,0,1,0,81.6,83.469,8.385,8.385,0,0,0,73.228,75.093Zm0,11.168a2.792,2.792,0,1,1,2.792-2.792A2.795,2.795,0,0,1,73.228,86.261Z" transform="translate(-64.852 -75.093)"/>
        </g>
      </g>
      <g id="Group_358" data-name="Group 358" transform="translate(61.426 69.798)">
        <g id="Group_357" data-name="Group 357">
          <path id="Path_885" data-name="Path 885" class="cls-4" d="M116.35,85.333h-.215a2.793,2.793,0,0,0-2.792,2.792,2.76,2.76,0,0,0,.215,1.076V103.48a18.148,18.148,0,1,1-36.3,0V88.125a2.792,2.792,0,1,0-5.583,0v15.355a23.731,23.731,0,0,0,47.462,0V88.125A2.793,2.793,0,0,0,116.35,85.333Z" transform="translate(-71.679 -85.333)"/>
        </g>
      </g>
    </g>
  </g>
</svg>
