<svg xmlns="http://www.w3.org/2000/svg" viewBox="0 0 251.184 164.725">
  <defs>
    <style>
      .cls-1 {
        fill: #e9eaf9;
      }

      .cls-2 {
        fill: #ebebff;
      }

      .cls-3 {
        fill: #f7f7fe;
      }
    </style>
  </defs>
  <g id="Nothing_to_see_here_saved_items" data-name="Nothing to see here saved items" transform="translate(-662.529 -282.331)">
    <g id="shopping-bag" transform="translate(697.177 282.331)">
      <g id="Group_342" data-name="Group 342" transform="translate(65.445)">
        <g id="Group_341" data-name="Group 341">
          <path id="Path_877" data-name="Path 877" class="cls-1" d="M119.8,20.355A23.733,23.733,0,0,0,77.131,9.747a2.791,2.791,0,1,0,4.507,3.293,18.151,18.151,0,0,1,32.63,8.1,2.8,2.8,0,0,0,2.761,2.4,2.99,2.99,0,0,0,.4-.028A2.793,2.793,0,0,0,119.8,20.355Z" transform="translate(-76.593)"/>
        </g>
      </g>
      <g id="Group_344" data-name="Group 344" transform="translate(20.942 36.294)">
        <g id="Group_343" data-name="Group 343" transform="translate(0)">
          <path id="Path_878" data-name="Path 878" class="cls-1" d="M150.216,59.687l-8.376-13.96a2.788,2.788,0,0,0-2.394-1.355H131.42a2.792,2.792,0,0,0,0,5.583h6.446l5.025,8.376H29.907l5.025-8.376H37.89a2.792,2.792,0,0,0,0-5.583H33.352a2.788,2.788,0,0,0-2.394,1.355l-8.376,13.96a2.793,2.793,0,0,0,2.394,4.23H147.822a2.793,2.793,0,0,0,2.394-4.23Z" transform="translate(-22.185 -44.372)"/>
        </g>
      </g>
      <g id="Group_346" data-name="Group 346" transform="translate(88.961 15.644)">
        <g id="Group_345" data-name="Group 345">
          <path id="Path_879" data-name="Path 879" class="cls-1" d="M151.439,29.348A2.787,2.787,0,0,0,149.7,28.1l-38.06-8.9a2.789,2.789,0,0,0-3.354,2.082l-2.87,12.269a2.792,2.792,0,0,0,5.437,1.27l2.235-9.55L145.711,32.9,140.585,54.82a2.789,2.789,0,0,0,2.082,3.353,2.824,2.824,0,0,0,.64.074,2.788,2.788,0,0,0,2.714-2.155l5.762-24.635A2.781,2.781,0,0,0,151.439,29.348Z" transform="translate(-105.343 -19.126)"/>
        </g>
      </g>
      <g id="Group_348" data-name="Group 348" transform="translate(31.828 8.485)">
        <g id="Group_347" data-name="Group 347">
          <path id="Path_880" data-name="Path 880" class="cls-1" d="M90.3,34.355,87.755,12.838a2.794,2.794,0,0,0-3.1-2.446l-46.7,5.52a2.792,2.792,0,0,0-2.444,3.1L39.755,54.9a2.793,2.793,0,0,0,2.77,2.465,3.05,3.05,0,0,0,.332-.02,2.794,2.794,0,0,0,2.444-3.1L41.387,21.128l41.152-4.864,2.215,18.743a2.792,2.792,0,0,0,5.546-.654Z" transform="translate(-35.494 -10.374)"/>
        </g>
      </g>
      <g id="Group_350" data-name="Group 350" transform="translate(52.688 26.804)">
        <g id="Group_349" data-name="Group 349">
          <path id="Path_881" data-name="Path 881" class="cls-1" d="M117.022,57.951l-5.542-23.045a2.789,2.789,0,0,0-3.368-2.06L63.137,43.663a2.792,2.792,0,0,0-2.062,3.368l2.77,11.518a2.792,2.792,0,1,0,5.429-1.305l-2.118-8.8L106.7,38.929l4.889,20.329a2.793,2.793,0,0,0,5.43-1.307Z" transform="translate(-60.997 -32.769)"/>
        </g>
      </g>
      <g id="Group_352" data-name="Group 352" transform="translate(15.359 50.256)">
        <g id="Group_351" data-name="Group 351">
          <path id="Path_882" data-name="Path 882" class="cls-1" d="M149.37,64.09a2.793,2.793,0,0,0-2.789-2.649H23.736a2.792,2.792,0,0,0-2.789,2.649L15.362,172.975a2.791,2.791,0,0,0,2.788,2.935H152.163a2.791,2.791,0,0,0,2.791-2.935ZM21.089,170.326l5.3-103.3h117.54l5.3,103.3Z" transform="translate(-15.359 -61.441)"/>
        </g>
      </g>
      <g id="Group_354" data-name="Group 354" transform="translate(97.721 61.422)">
        <g id="Group_353" data-name="Group 353">
          <path id="Path_883" data-name="Path 883" class="cls-1" d="M124.428,75.093a8.376,8.376,0,1,0,8.376,8.376A8.385,8.385,0,0,0,124.428,75.093Zm0,11.168a2.792,2.792,0,1,1,2.792-2.792A2.794,2.794,0,0,1,124.428,86.261Z" transform="translate(-116.052 -75.093)"/>
        </g>
      </g>
      <g id="Group_356" data-name="Group 356" transform="translate(55.842 61.422)">
        <g id="Group_355" data-name="Group 355">
          <path id="Path_884" data-name="Path 884" class="cls-1" d="M73.228,75.093A8.376,8.376,0,1,0,81.6,83.469,8.385,8.385,0,0,0,73.228,75.093Zm0,11.168a2.792,2.792,0,1,1,2.792-2.792A2.795,2.795,0,0,1,73.228,86.261Z" transform="translate(-64.852 -75.093)"/>
        </g>
      </g>
      <g id="Group_358" data-name="Group 358" transform="translate(61.426 69.798)">
        <g id="Group_357" data-name="Group 357">
          <path id="Path_885" data-name="Path 885" class="cls-1" d="M116.35,85.333h-.215a2.793,2.793,0,0,0-2.792,2.792,2.76,2.76,0,0,0,.215,1.076V103.48a18.148,18.148,0,1,1-36.3,0V88.125a2.792,2.792,0,1,0-5.583,0v15.355a23.731,23.731,0,0,0,47.462,0V88.125A2.793,2.793,0,0,0,116.35,85.333Z" transform="translate(-71.679 -85.333)"/>
        </g>
      </g>
    </g>
    <path id="e292" class="cls-2" d="M16.026,24.747Q19.6,21.542,21.318,19.9t3.727-3.876a16.527,16.527,0,0,0,2.8-3.951,8.042,8.042,0,0,0,.783-3.354,5.29,5.29,0,0,0-1.6-3.951,5.481,5.481,0,0,0-3.988-1.565,6.231,6.231,0,0,0-3.466,1.044,5.346,5.346,0,0,0-2.2,2.683H14.386a5.346,5.346,0,0,0-2.2-2.683A6.231,6.231,0,0,0,8.721,3.205,5.481,5.481,0,0,0,4.733,4.771a5.29,5.29,0,0,0-1.6,3.951,8.042,8.042,0,0,0,.783,3.354,16.527,16.527,0,0,0,2.8,3.951q2.013,2.236,3.727,3.876t5.292,4.845l.149.149ZM23.033,0a8.383,8.383,0,0,1,6.224,2.534,8.481,8.481,0,0,1,2.5,6.187,11.244,11.244,0,0,1-.82,4.211,16.94,16.94,0,0,1-3.019,4.584q-2.2,2.534-3.988,4.249t-5.74,5.292l-2.311,2.087-2.311-2.013Q8.423,22.511,6.149,20.2a30.923,30.923,0,0,1-4.211-5.441A11.492,11.492,0,0,1,0,8.721,8.481,8.481,0,0,1,2.5,2.534,8.383,8.383,0,0,1,8.721,0a8.968,8.968,0,0,1,7.156,3.354A8.968,8.968,0,0,1,23.033,0ZM34.959,30.226" transform="translate(867.728 400.492) rotate(30)"/>
    <path id="e292-2" data-name="e292" class="cls-3" d="M23.291,35.966q5.2-4.658,7.692-7.042T36.4,23.291a24.019,24.019,0,0,0,4.062-5.742A11.688,11.688,0,0,0,41.6,12.675,7.689,7.689,0,0,0,39.27,6.933a7.966,7.966,0,0,0-5.8-2.275,9.056,9.056,0,0,0-5.037,1.517,7.769,7.769,0,0,0-3.2,3.9H20.908a7.769,7.769,0,0,0-3.2-3.9,9.056,9.056,0,0,0-5.037-1.517,7.966,7.966,0,0,0-5.8,2.275A7.689,7.689,0,0,0,4.55,12.675,11.688,11.688,0,0,0,5.687,17.55,24.019,24.019,0,0,0,9.75,23.291q2.925,3.25,5.417,5.633t7.692,7.042l.217.217ZM33.475,0A12.183,12.183,0,0,1,42.52,3.683a12.327,12.327,0,0,1,3.629,8.992A16.341,16.341,0,0,1,44.958,18.8a24.619,24.619,0,0,1-4.387,6.662q-3.2,3.683-5.8,6.175t-8.342,7.692l-3.358,3.033-3.358-2.925Q12.242,32.716,8.937,29.358A44.943,44.943,0,0,1,2.817,21.45,16.7,16.7,0,0,1,0,12.675,12.327,12.327,0,0,1,3.629,3.683,12.183,12.183,0,0,1,12.675,0a13.033,13.033,0,0,1,10.4,4.875A13.033,13.033,0,0,1,33.475,0ZM50.808,43.929" transform="translate(862.905 320.355)"/>
    <path id="e292-3" data-name="e292" class="cls-3" d="M20.07,30.991q4.481-4.014,6.628-6.068t4.667-4.854a20.7,20.7,0,0,0,3.5-4.947,10.072,10.072,0,0,0,.98-4.2,6.625,6.625,0,0,0-2.007-4.947,6.864,6.864,0,0,0-4.994-1.96A7.8,7.8,0,0,0,24.5,5.321a6.7,6.7,0,0,0-2.754,3.36H18.016a6.7,6.7,0,0,0-2.754-3.36,7.8,7.8,0,0,0-4.341-1.307,6.864,6.864,0,0,0-4.994,1.96,6.625,6.625,0,0,0-2.007,4.947,10.072,10.072,0,0,0,.98,4.2A20.7,20.7,0,0,0,8.4,20.07q2.52,2.8,4.667,4.854T19.7,30.991l.187.187ZM28.844,0a10.5,10.5,0,0,1,7.794,3.174,10.622,10.622,0,0,1,3.127,7.748A14.081,14.081,0,0,1,38.739,16.2a21.214,21.214,0,0,1-3.781,5.741Q32.2,25.11,29.964,27.257t-7.188,6.628L19.883,36.5l-2.894-2.52Q10.548,28.191,7.7,25.3a38.726,38.726,0,0,1-5.274-6.814A14.392,14.392,0,0,1,0,10.922,10.622,10.622,0,0,1,3.127,3.174,10.5,10.5,0,0,1,10.922,0a11.231,11.231,0,0,1,8.961,4.2A11.231,11.231,0,0,1,28.844,0ZM43.78,37.852" transform="translate(662.529 332.965) rotate(-20)"/>
    <path id="Union_3" data-name="Union 3" class="cls-1" d="M-10003.418-9625.255q-3.7-1.491-5.39-2.294a17.812,17.812,0,0,1-3.357-2.12,6.6,6.6,0,0,1-2.241-2.893,4.875,4.875,0,0,1,.132-3.845,4.836,4.836,0,0,1,2.874-2.6,5.168,5.168,0,0,1,4.541.405,5.184,5.184,0,0,1,3.22-3.231,4.84,4.84,0,0,1,3.873.146,4.887,4.887,0,0,1,2.574,2.863,6.455,6.455,0,0,1,.389,2.443,9.847,9.847,0,0,1-.732,3.081q-.694,1.812-1.324,3.092t-2.066,4l-.843,1.588Z" transform="translate(10715.344 10053.065)"/>
  </g>
</svg>
