<svg xmlns="http://www.w3.org/2000/svg" viewBox="0 0 300.65 50.22"><defs><style>.cls-1{fill:#fff;}.cls-2{fill:#f06;}.cls-3{fill:#f9c;}</style></defs><title>passward logo 2</title><g id="Layer_2" data-name="Layer 2"><g id="Layer_1-2" data-name="Layer 1"><path class="cls-1" d="M139.3,22.6c0,5.82-3.87,15.56-14.06,15.56-.86,0-2.21,0-3.77-.1l-1.56,11.2a1,1,0,0,1-1.15,1h-5.52c-.51,0-.56,0-.46-.56l5.13-36.35a1.09,1.09,0,0,1,1.1-1h2.56c1.91,0,2.91.91,3.06,2.36A9.18,9.18,0,0,1,131,11.85C137.49,11.85,139.3,17.38,139.3,22.6Zm-7.13,1.6c0-2.76-1.16-6.07-4.17-6.07A6.46,6.46,0,0,0,124,20l-1.66,12c1.06,0,2.06,0,3,0C129.56,32,132.17,28.27,132.17,24.2Z"/><path class="cls-1" d="M166.87,12.91l-2.61,18.37a20.3,20.3,0,0,0-.1,5.18c.05.75-.76,1.2-1.26,1.2h-2.21c-2.56,0-3-.4-3.31-3.41-1.51,1.65-4.17,3.91-7.13,3.91-6.53,0-8.34-5.52-8.34-10.74,0-5.83,3.87-15.57,14.06-15.57,2.06,0,7.23.2,10.3.5h.15C166.92,12.4,166.92,12.65,166.87,12.91Zm-9.34,16.62,1.6-11.45c-1.15,0-2.26,0-3.26,0-4.22,0-6.83,3.71-6.83,7.78,0,2.81,1.16,6.08,4.17,6.08C154.57,31.89,156.17,30.73,157.53,29.53Z"/><path class="cls-1" d="M188.11,14.41c.5.4.65.71.3,1.26l-2.51,3.26c-.3.4-.7.4-1.25.15A8.15,8.15,0,0,0,181,18a2.36,2.36,0,0,0-2.41,2.11c.1.9.45.9,2.31,1.8,2.91,1.41,6.63,2.31,6.63,7.29,0,4.36-3.77,8.93-10.3,8.93a10.56,10.56,0,0,1-7.78-3.81c-.4-.5-.5-1-.2-1.26L171.74,30c.3-.4.65-.35,1.1.1,2.06,1.81,3.22,1.86,4.37,1.86,2.77,0,3.12-1.46,3.12-2.81,0-1-.4-1.46-2.31-2.36-2.92-1.36-6.53-2.62-6.53-6.18a8.93,8.93,0,0,1,9.39-8.79A10.43,10.43,0,0,1,188.11,14.41Z"/><path class="cls-1" d="M225.72,13.41a38.25,38.25,0,0,1-.3,5.37c-1.15,7.23-4.11,12.4-9.29,18.48-.3.35-.35.4-.8.4h-5.17c-.45,0-.71-.2-.81-.8L208.2,30a60.2,60.2,0,0,1-5.42,7.23c-.31.35-.36.4-.81.4h-5.22c-.45,0-.7-.25-.8-.8l-4-23.85c-.1-.51-.1-.66.45-.66h5.88c.45,0,.75.1.85.81l2.11,16.42a21.49,21.49,0,0,0,4.47-11.15l.15-2.31-.5-3.11c-.1-.51-.1-.66.45-.66h5.87a.78.78,0,0,1,.86.81l1.55,16.32c2.57-3.62,3.42-6.63,4.27-11a42.19,42.19,0,0,0,.4-5.68c0-.35.36-.4.81-.4h5.52C225.62,12.35,225.72,12.91,225.72,13.41Z"/><path class="cls-1" d="M252.44,12.91l-2.61,18.37a20.3,20.3,0,0,0-.1,5.18,1.26,1.26,0,0,1-1.25,1.2h-2.21c-2.57,0-3-.4-3.32-3.41-1.5,1.65-4.17,3.91-7.13,3.91-6.53,0-8.34-5.52-8.34-10.74,0-5.83,3.87-15.57,14.07-15.57,2,0,7.23.2,10.29.5H252C252.49,12.4,252.49,12.65,252.44,12.91ZM243.1,29.53l1.61-11.45c-1.16,0-2.26,0-3.26,0-4.22,0-6.83,3.71-6.83,7.78,0,2.81,1.15,6.08,4.16,6.08C240.14,31.89,241.75,30.73,243.1,29.53Z"/><path class="cls-1" d="M274.09,12.35l-.91,6.33a1.29,1.29,0,0,1-1.3.9c-4.22.51-6.78.76-7.23,3.27l-2,13.86a1,1,0,0,1-1.06.95h-5.52c-.5,0-.55,0-.45-.5L259,13.36a1.13,1.13,0,0,1,1.06-1h2.51c2.46,0,3.36,1.21,3.06,3.22l0,.45c3.31-2.46,7.28-4,8.39-4C274.14,12,274.19,12.05,274.09,12.35Z"/><path class="cls-1" d="M300.65,1l-4.22,30.28a23.67,23.67,0,0,0-.2,5.18c.1.75-.7,1.25-1.2,1.25h-2.21c-2.61,0-3.16-1.45-3.22-3.46-1.5,1.65-4.21,4-7.18,4-6.52,0-8.33-5.52-8.33-10.74,0-5.83,3.86-15.57,14.06-15.57.9,0,2.36.05,4,.1L293.67.55c.1-.5.15-.55.65-.55h5.53A.86.86,0,0,1,300.65,1ZM289.7,29.53l1.56-11.45c-1.1,0-2.21,0-3.21,0-4.22,0-6.83,3.71-6.83,7.78,0,2.81,1.15,6.08,4.17,6.08C286.74,31.89,288.35,30.68,289.7,29.53Z"/><path class="cls-1" d="M80.39,45.26H21.14A21.15,21.15,0,0,1,0,24.12V21.4A21.15,21.15,0,0,1,21.14.26h84.39L102.2,24C99.78,37.26,92.07,45.26,80.39,45.26Z"/><path class="cls-2" d="M26.76,13.57l1.59,4.91a1.31,1.31,0,0,0,1.24.9h5.16a1.3,1.3,0,0,1,.77,2.36l-4.18,3a1.31,1.31,0,0,0-.47,1.46l1.59,4.91a1.3,1.3,0,0,1-2,1.46l-4.18-3a1.31,1.31,0,0,0-1.53,0l-4.18,3a1.3,1.3,0,0,1-2-1.46l1.59-4.91a1.29,1.29,0,0,0-.47-1.46l-4.18-3a1.31,1.31,0,0,1,.77-2.36h5.16a1.29,1.29,0,0,0,1.24-.9l1.6-4.91A1.3,1.3,0,0,1,26.76,13.57Z"/><path class="cls-3" d="M41.6,21.34l4.94-1.5a1.31,1.31,0,0,0,.93-1.22l.1-5.16A1.31,1.31,0,0,1,50,12.74L52.89,17a1.31,1.31,0,0,0,1.45.51L59.28,16a1.31,1.31,0,0,1,1.42,2l-3.12,4.11a1.31,1.31,0,0,0,0,1.53l3,4.24a1.31,1.31,0,0,1-1.5,2l-4.87-1.7a1.32,1.32,0,0,0-1.47.45l-3.12,4.11a1.3,1.3,0,0,1-2.34-.81l.1-5.16a1.3,1.3,0,0,0-.87-1.26l-4.88-1.69A1.3,1.3,0,0,1,41.6,21.34Z"/><path class="cls-2" d="M70.37,15.4,75,17.73a1.29,1.29,0,0,0,1.51-.24l3.64-3.67a1.3,1.3,0,0,1,2.21,1.12L81.55,20a1.32,1.32,0,0,0,.7,1.37l4.61,2.32a1.31,1.31,0,0,1-.38,2.46l-5.1.82A1.31,1.31,0,0,0,80.3,28.1l-.79,5.1a1.3,1.3,0,0,1-2.45.39L74.71,29a1.32,1.32,0,0,0-1.37-.69l-5.1.83a1.31,1.31,0,0,1-1.13-2.21l3.64-3.66A1.32,1.32,0,0,0,71,21.75l-2.36-4.59A1.3,1.3,0,0,1,70.37,15.4Z"/></g></g></svg>