<svg xmlns="http://www.w3.org/2000/svg" xmlns:xlink="http://www.w3.org/1999/xlink" viewBox="0 0 212.684 216.974">
  <defs>
    <style>
      .cls-1 {
        fill: url(#linear-gradient);
      }
    </style>
    <linearGradient id="linear-gradient" x1="0.5" x2="0.5" y2="1" gradientUnits="objectBoundingBox">
      <stop offset="0" stop-color="#fff0f6"/>
      <stop offset="1" stop-color="#e9ebfa"/>
    </linearGradient>
  </defs>
  <path id="Path_41" data-name="Path 41" class="cls-1" d="M109.944,20.425l12.821,39.591a10.563,10.563,0,0,0,10,7.257h41.607A10.482,10.482,0,0,1,180.58,86.3l-33.705,24.19a10.563,10.563,0,0,0-3.79,11.773l12.821,39.591a10.482,10.482,0,0,1-16.127,11.773l-33.7-24.19a10.563,10.563,0,0,0-12.337,0l-33.7,24.19a10.482,10.482,0,0,1-16.127-11.773l12.821-39.591a10.482,10.482,0,0,0-3.79-11.773L19.231,86.3a10.563,10.563,0,0,1,6.209-19.03H67.047a10.4,10.4,0,0,0,10-7.257l12.9-39.591a10.482,10.482,0,0,1,20,0Z" transform="translate(-17.59 168.017) rotate(-69)"/>
</svg>
