<svg xmlns="http://www.w3.org/2000/svg" viewBox="0 0 13.032 12.391">
  <defs>
    <style>
      .cls-1 {
        fill: #969696;
      }
    </style>
  </defs>
  <path id="profile_icon" data-name="profile icon" class="cls-1" d="M5.21,1.314a1.25,1.25,0,0,1,.917.382,1.25,1.25,0,0,1,.382.917,1.25,1.25,0,0,1-.382.917,1.291,1.291,0,0,1-1.833,0,1.25,1.25,0,0,1-.382-.917A1.25,1.25,0,0,1,4.293,1.7,1.25,1.25,0,0,1,5.21,1.314ZM5.21,0A2.518,2.518,0,0,0,3.361.764,2.518,2.518,0,0,0,2.6,2.613a2.518,2.518,0,0,0,.764,1.849,2.518,2.518,0,0,0,1.849.764,2.518,2.518,0,0,0,1.849-.764,2.518,2.518,0,0,0,.764-1.849A2.518,2.518,0,0,0,7.058.764,2.518,2.518,0,0,0,5.21,0Zm5.21,11.092h-1.3A4.2,4.2,0,0,0,8.831,9.5a3.735,3.735,0,0,0-.8-1.238,3.5,3.5,0,0,0-1.23-.8A4.3,4.3,0,0,0,5.21,7.181a4.3,4.3,0,0,0-1.589.283,3.5,3.5,0,0,0-1.23.8,3.735,3.735,0,0,0-.8,1.238,4.2,4.2,0,0,0-.29,1.589H0a5.51,5.51,0,0,1,.39-2.1A4.878,4.878,0,0,1,3.124,6.256a5.469,5.469,0,0,1,2.085-.39,5.469,5.469,0,0,1,2.085.39A4.878,4.878,0,0,1,10.03,8.991,5.51,5.51,0,0,1,10.42,11.092Zm2.613,1.3"/>
</svg>
