<svg xmlns="http://www.w3.org/2000/svg" viewBox="0 0 18.266 17.367">
  <defs>
    <style>
      .cls-1 {
        fill: #003;
      }
    </style>
  </defs>
  <path id="profile_icon_dark" data-name="profile icon dark" class="cls-1" d="M7.3,1.842a1.752,1.752,0,0,1,1.285.535,1.752,1.752,0,0,1,.535,1.285,1.752,1.752,0,0,1-.535,1.285,1.809,1.809,0,0,1-2.57,0,1.752,1.752,0,0,1-.535-1.285,1.752,1.752,0,0,1,.535-1.285A1.752,1.752,0,0,1,7.3,1.842ZM7.3,0A3.529,3.529,0,0,0,4.711,1.071,3.529,3.529,0,0,0,3.64,3.662,3.529,3.529,0,0,0,4.711,6.253,3.529,3.529,0,0,0,7.3,7.324,3.529,3.529,0,0,0,9.893,6.253a3.529,3.529,0,0,0,1.071-2.591A3.529,3.529,0,0,0,9.893,1.071,3.529,3.529,0,0,0,7.3,0Zm7.3,15.546h-1.82a5.891,5.891,0,0,0-.407-2.227,5.236,5.236,0,0,0-1.124-1.735,4.911,4.911,0,0,0-1.724-1.124,6.031,6.031,0,0,0-2.227-.4,6.031,6.031,0,0,0-2.227.4,4.911,4.911,0,0,0-1.724,1.124,5.236,5.236,0,0,0-1.124,1.735,5.891,5.891,0,0,0-.407,2.227H0A7.723,7.723,0,0,1,.546,12.6,6.836,6.836,0,0,1,4.379,8.769,7.665,7.665,0,0,1,7.3,8.223a7.665,7.665,0,0,1,2.923.546A6.836,6.836,0,0,1,14.058,12.6,7.723,7.723,0,0,1,14.6,15.546Zm3.662,1.82"/>
</svg>
