<svg xmlns="http://www.w3.org/2000/svg" viewBox="0 0 19.563 16">
  <defs>
    <style>
      .cls-1 {
        fill: #fff;
      }
    </style>
  </defs>
  <path id="eb27" class="cls-1" d="M14.229,10.667H11.938L8.375,7.1l3.563-3.542h2.292V5.333l3.563-2.667L14.229,0V1.771H11.563a.826.826,0,0,0-.333.073.943.943,0,0,0-.292.2L2.313,10.667H0v1.771H2.667a.918.918,0,0,0,.344-.062.832.832,0,0,0,.281-.188L7.125,8.375l3.813,3.813a.81.81,0,0,0,.292.188.944.944,0,0,0,.333.063h2.667v1.792l3.563-2.667L14.229,8.9ZM4.979,6.229l1.25-1.271L3.292,2.042a.984.984,0,0,0-.281-.2.8.8,0,0,0-.344-.073H0V3.563H2.313ZM19.563,16"/>
</svg>
