<svg xmlns="http://www.w3.org/2000/svg" viewBox="0 0 12.618 10.91">
  <defs>
    <style>
      .cls-1 {
        fill: #969696;
      }
    </style>
  </defs>
  <path id="saved_items_icon" data-name="saved items icon" class="cls-1" d="M5.785,8.933q1.291-1.157,1.91-1.749t1.345-1.4a5.965,5.965,0,0,0,1.009-1.426,2.9,2.9,0,0,0,.283-1.211,1.91,1.91,0,0,0-.578-1.426,1.978,1.978,0,0,0-1.439-.565,2.249,2.249,0,0,0-1.251.377,1.93,1.93,0,0,0-.794.969H5.193A1.93,1.93,0,0,0,4.4,1.534a2.249,2.249,0,0,0-1.251-.377,1.978,1.978,0,0,0-1.439.565A1.91,1.91,0,0,0,1.13,3.148a2.9,2.9,0,0,0,.283,1.211A5.965,5.965,0,0,0,2.421,5.785q.726.807,1.345,1.4t1.91,1.749l.054.054ZM8.314,0A3.026,3.026,0,0,1,10.56.915a3.061,3.061,0,0,1,.9,2.233,4.059,4.059,0,0,1-.3,1.52,6.114,6.114,0,0,1-1.09,1.655q-.794.915-1.439,1.534T6.565,9.767l-.834.753L4.9,9.794Q3.04,8.125,2.22,7.291A11.162,11.162,0,0,1,.7,5.327,4.148,4.148,0,0,1,0,3.148,3.061,3.061,0,0,1,.9.915,3.026,3.026,0,0,1,3.148,0,3.237,3.237,0,0,1,5.731,1.211,3.237,3.237,0,0,1,8.314,0Zm4.3,10.91"/>
</svg>
