<svg xmlns="http://www.w3.org/2000/svg" viewBox="0 0 20.305 17.638">
  <defs>
    <style>
      .cls-1 {
        fill: #fff;
      }
    </style>
  </defs>
  <path id="e2df" class="cls-1" d="M14.143,14.1a1.638,1.638,0,0,1,1.22.538,1.737,1.737,0,0,1,.517,1.241,1.766,1.766,0,0,1-1.737,1.737A1.737,1.737,0,0,1,12.9,17.1a1.638,1.638,0,0,1-.538-1.22A1.839,1.839,0,0,1,14.143,14.1ZM0,0H2.895l.827,1.737H16.79a.809.809,0,0,1,.62.269.913.913,0,0,1,.248.641.8.8,0,0,1-.124.414L14.391,8.767a1.631,1.631,0,0,1-1.53.91H6.286L5.5,11.124l-.041.124a.183.183,0,0,0,.207.207H15.88v1.778H5.293a1.638,1.638,0,0,1-1.22-.538,1.737,1.737,0,0,1-.517-1.241,1.835,1.835,0,0,1,.207-.827l1.2-2.192-3.184-6.7H0ZM5.293,14.1a1.7,1.7,0,0,1,1.241.538,1.7,1.7,0,0,1,.538,1.241,1.638,1.638,0,0,1-.538,1.22,1.737,1.737,0,0,1-1.241.517,1.668,1.668,0,0,1-1.22-.517,1.668,1.668,0,0,1-.517-1.22,1.737,1.737,0,0,1,.517-1.241A1.638,1.638,0,0,1,5.293,14.1ZM20.3,17.638" transform="translate(0)"/>
</svg>
