<svg xmlns="http://www.w3.org/2000/svg" viewBox="0 0 11.285 10.79">
  <defs>
    <style>
      .cls-1 {
        fill: #f06;
      }
    </style>
  </defs>
  <path id="Path_48" data-name="Path 48" class="cls-1" d="M21.286,13.577l.851,2.628a.7.7,0,0,0,.664.482h2.762a.7.7,0,0,1,.412,1.263l-2.237,1.606a.7.7,0,0,0-.252.781l.851,2.628a.7.7,0,0,1-1.07.781L21.03,22.141a.7.7,0,0,0-.819,0l-2.237,1.606a.7.7,0,0,1-1.07-.781l.851-2.628a.7.7,0,0,0-.252-.781L15.265,17.95a.7.7,0,0,1,.412-1.263h2.762a.69.69,0,0,0,.664-.482l.856-2.628a.7.7,0,0,1,1.327,0Z" transform="translate(-14.983 -13.09)"/>
</svg>
