<svg xmlns="http://www.w3.org/2000/svg" viewBox="0 0 12.569 15.11">
  <defs>
    <style>
      .cls-1 {
        fill: #f06;
      }
    </style>
  </defs>
  <path id="e9d2" class="cls-1" d="M14.844.125a.722.722,0,0,0-.692,0,5.209,5.209,0,0,1-.7.427,6.447,6.447,0,0,1-.744.324,3.421,3.421,0,0,0-1.06-.633A3.181,3.181,0,0,0,10.47,0,3.58,3.58,0,0,0,9.263.2,3.04,3.04,0,0,0,8.188.818a3.5,3.5,0,0,0-.942,1.2,3.318,3.318,0,0,0-.324,1.436A6.053,6.053,0,0,1,5.6,3.218a6.848,6.848,0,0,1-1.215-.53A5.768,5.768,0,0,1,3.3,1.907,6.045,6.045,0,0,1,2.4.876.507.507,0,0,0,2.172.685.85.85,0,0,0,1.841.626a.47.47,0,0,0-.324.118.575.575,0,0,0-.177.265A5.989,5.989,0,0,0,.972,2.047,7.15,7.15,0,0,0,.707,4.4,7.516,7.516,0,0,0,.884,5.648a5.62,5.62,0,0,0,.486,1.311,6.014,6.014,0,0,0,.913,1.3A6.831,6.831,0,0,0,3.726,9.432,6.39,6.39,0,0,1,2.231,9.9a8.6,8.6,0,0,1-1.583.147.731.731,0,0,0-.39.125.508.508,0,0,0-.243.317.631.631,0,0,0,.044.4.561.561,0,0,0,.265.295,8.467,8.467,0,0,0,1.208.574,10.471,10.471,0,0,0,1.215.42,8.251,8.251,0,0,0,1.23.243,8.229,8.229,0,0,0,1.193.088,8.989,8.989,0,0,0,2.3-.295,8.789,8.789,0,0,0,2.165-.9,7.824,7.824,0,0,0,1.8-1.384,8.087,8.087,0,0,0,1.318-1.819,9.1,9.1,0,0,0,.817-2.187,10.674,10.674,0,0,0,.28-2.474V3.144a5.3,5.3,0,0,0,.788-1.119A5.1,5.1,0,0,0,15.094.759.564.564,0,0,0,15.064.4.634.634,0,0,0,14.844.125ZM12.708,2.511a.583.583,0,0,0-.147.265,1.175,1.175,0,0,0-.044.309.493.493,0,0,1,.052.184q.007.1.007.184A9.494,9.494,0,0,1,12.34,5.6a7.652,7.652,0,0,1-.7,1.885,7.035,7.035,0,0,1-1.127,1.561A6.413,6.413,0,0,1,9,10.242a7.427,7.427,0,0,1-1.369.618,8,8,0,0,1-1.465.331,7.494,7.494,0,0,1-1.524.037,8.548,8.548,0,0,1-1.546-.236,8.191,8.191,0,0,0,1.178-.434,7.162,7.162,0,0,0,1.09-.626A.577.577,0,0,0,5.6,9.69a.767.767,0,0,0,.066-.331.478.478,0,0,0-.118-.317.556.556,0,0,0-.265-.184A5.8,5.8,0,0,1,3.21,7.415,5.188,5.188,0,0,1,2.216,5.7,4.638,4.638,0,0,1,1.973,4,6.923,6.923,0,0,1,2.15,2.585,6.794,6.794,0,0,0,3.284,3.5a7.265,7.265,0,0,0,1.311.692A7.208,7.208,0,0,0,6.023,4.6a7.931,7.931,0,0,0,1.531.118.605.605,0,0,0,.434-.2.605.605,0,0,0,.2-.434V3.453a2.352,2.352,0,0,1,.184-.913,2.128,2.128,0,0,1,.567-.78,2.048,2.048,0,0,1,1.59-.537,2.053,2.053,0,0,1,1.487.729.7.7,0,0,0,.317.191.578.578,0,0,0,.317,0,.782.782,0,0,1,.214-.066.782.782,0,0,0,.214-.066,1.831,1.831,0,0,1-.184.258A2.42,2.42,0,0,0,12.708,2.511Zm2.386,10.058" transform="translate(0 15.11) rotate(-90)"/>
</svg>
