<svg xmlns="http://www.w3.org/2000/svg" viewBox="0 0 29.477 24.518">
  <defs>
    <style>
      .cls-1 {
        fill: #f06;
      }
    </style>
  </defs>
  <path id="e9d2" class="cls-1" d="M28.956.245a1.408,1.408,0,0,0-1.35,0,10.16,10.16,0,0,1-1.364.833,12.576,12.576,0,0,1-1.451.632A6.673,6.673,0,0,0,22.722.474,6.2,6.2,0,0,0,20.424,0a6.983,6.983,0,0,0-2.356.388,5.93,5.93,0,0,0-2.1,1.206,6.835,6.835,0,0,0-1.838,2.341,6.472,6.472,0,0,0-.632,2.8,11.808,11.808,0,0,1-2.585-.46,13.358,13.358,0,0,1-2.37-1.034A11.252,11.252,0,0,1,6.435,3.72,11.792,11.792,0,0,1,4.682,1.71a.988.988,0,0,0-.445-.373,1.659,1.659,0,0,0-.646-.115.917.917,0,0,0-.632.23,1.122,1.122,0,0,0-.345.517A11.683,11.683,0,0,0,1.9,3.993a13.947,13.947,0,0,0-.517,4.582,14.662,14.662,0,0,0,.345,2.442,10.962,10.962,0,0,0,.948,2.557A11.732,11.732,0,0,0,4.452,16.1a13.324,13.324,0,0,0,2.815,2.3,12.466,12.466,0,0,1-2.916.919,16.772,16.772,0,0,1-3.088.287A1.425,1.425,0,0,0,.5,19.85a.99.99,0,0,0-.474.618,1.23,1.23,0,0,0,.086.776,1.094,1.094,0,0,0,.517.575,16.518,16.518,0,0,0,2.356,1.12,20.426,20.426,0,0,0,2.37.819,16.1,16.1,0,0,0,2.4.474,16.053,16.053,0,0,0,2.327.172,17.534,17.534,0,0,0,4.481-.575,17.145,17.145,0,0,0,4.223-1.752,15.262,15.262,0,0,0,3.5-2.7,15.775,15.775,0,0,0,2.571-3.548,17.748,17.748,0,0,0,1.594-4.266A20.823,20.823,0,0,0,27,6.737v-.6A10.348,10.348,0,0,0,28.539,3.95a9.94,9.94,0,0,0,.9-2.47,1.1,1.1,0,0,0-.057-.7A1.237,1.237,0,0,0,28.956.245ZM24.79,4.9a1.138,1.138,0,0,0-.287.517,2.293,2.293,0,0,0-.086.6.961.961,0,0,1,.1.359q.014.187.014.359a18.521,18.521,0,0,1-.46,4.194,14.926,14.926,0,0,1-1.364,3.677,13.722,13.722,0,0,1-2.2,3.045,12.509,12.509,0,0,1-2.959,2.327,14.489,14.489,0,0,1-2.671,1.206,15.609,15.609,0,0,1-2.858.646,14.618,14.618,0,0,1-2.973.072,16.676,16.676,0,0,1-3.016-.46,15.977,15.977,0,0,0,2.3-.847,13.972,13.972,0,0,0,2.126-1.221,1.125,1.125,0,0,0,.474-.474,1.5,1.5,0,0,0,.129-.646.933.933,0,0,0-.23-.618,1.086,1.086,0,0,0-.517-.359,11.311,11.311,0,0,1-4.05-2.815,10.121,10.121,0,0,1-1.939-3.347A9.048,9.048,0,0,1,3.849,7.8a13.5,13.5,0,0,1,.345-2.758A13.254,13.254,0,0,0,6.406,6.823a14.172,14.172,0,0,0,2.557,1.35,14.061,14.061,0,0,0,2.786.8,15.471,15.471,0,0,0,2.987.23,1.18,1.18,0,0,0,.847-.388,1.18,1.18,0,0,0,.388-.847V6.737a4.588,4.588,0,0,1,.359-1.781,4.152,4.152,0,0,1,1.106-1.522,4,4,0,0,1,3.1-1.048,4,4,0,0,1,2.9,1.422,1.361,1.361,0,0,0,.618.373,1.127,1.127,0,0,0,.618,0,1.525,1.525,0,0,1,.417-.129,1.525,1.525,0,0,0,.417-.129,3.572,3.572,0,0,1-.359.5A4.721,4.721,0,0,0,24.79,4.9Zm4.654,19.62"/>
</svg>
