<svg xmlns="http://www.w3.org/2000/svg" viewBox="0 0 13.386 11.969">
  <path id="vendor_icon" data-name="vendor icon" d="M3.6,3.687,4.168,0h-2.9L.055,3.164a1.045,1.045,0,0,0-.041.172A1.2,1.2,0,0,0,.53,4.512a2.029,2.029,0,0,0,1.286.413,2.028,2.028,0,0,0,1.2-.358A1.314,1.314,0,0,0,3.6,3.687ZM6.342,4.925a2.029,2.029,0,0,0,1.286-.413,1.224,1.224,0,0,0,.53-.991.152.152,0,0,0-.007-.048.152.152,0,0,1-.007-.048L7.787,0H4.9L4.54,3.426a.111.111,0,0,0-.014.048v.048a1.224,1.224,0,0,0,.53.991A2.029,2.029,0,0,0,6.342,4.925Zm3.522.743V8.447H2.82V5.668a3.319,3.319,0,0,1-.488.131,2.769,2.769,0,0,1-.516.048,1.461,1.461,0,0,1-.206-.014l-.193-.028v4.471a.955.955,0,0,0,.289.7.939.939,0,0,0,.688.289h7.9a.939.939,0,0,0,.688-.289.955.955,0,0,0,.289-.7V5.806l-.193.028a1.461,1.461,0,0,1-.206.014,2.769,2.769,0,0,1-.516-.048A3.319,3.319,0,0,1,9.864,5.668Zm2.765-2.5L11.418,0h-2.9l.55,3.687a1.309,1.309,0,0,0,.6.88,2.06,2.06,0,0,0,1.2.358,2.029,2.029,0,0,0,1.286-.413,1.2,1.2,0,0,0,.516-1.176A1.046,1.046,0,0,0,12.629,3.164Zm.757,8.8"/>
</svg>
