<svg xmlns="http://www.w3.org/2000/svg" viewBox="0 0 43.225 27.906">
  <defs>
    <style>
      .cls-1 {
        fill: #fff;
      }
    </style>
  </defs>
  <g id="youtube_play_button" data-name="youtube play button" transform="translate(-1001.067 -3385.727)">
    <circle id="Ellipse_13" data-name="Ellipse 13" class="cls-1" cx="10" cy="10" r="10" transform="translate(1013 3390)"/>
    <path id="e0fd" d="M42.8,7.071a52.438,52.438,0,0,1,.424,6.694,52.438,52.438,0,0,1-.424,6.694,27.2,27.2,0,0,1-.731,3.96,3.454,3.454,0,0,1-1.2,1.933q-1.414,1.178-19.279,1.178-17.818,0-19.232-1.178-1.32-.9-1.98-5.892A52.826,52.826,0,0,1,0,13.764,52.826,52.826,0,0,1,.377,7.071q.66-5,1.98-5.892Q3.771,0,21.589,0,39.454,0,40.869,1.178a3.454,3.454,0,0,1,1.2,1.933A27.2,27.2,0,0,1,42.8,7.071ZM17.677,20.835l11.784-7.071L17.677,6.694Zm25.549,7.071" transform="translate(1001.067 3385.727)"/>
  </g>
</svg>
